<?xml version="1.0" standalone="no"?><!DOCTYPE svg PUBLIC "-//W3C//DTD SVG 1.1//EN" "http://www.w3.org/Graphics/SVG/1.1/DTD/svg11.dtd"><svg t="1505397735157" class="icon" style="" viewBox="0 0 1024 1024" version="1.1" xmlns="http://www.w3.org/2000/svg" p-id="3934" xmlns:xlink="http://www.w3.org/1999/xlink" width="200" height="200"><defs><style type="text/css"></style></defs><path d="M511.926539 441.278029L85.391906 14.845781A49.810153 49.810153 0 0 0 14.644083 14.692204a49.861346 49.861346 0 0 0 0.102385 70.69663l426.534633 426.585826-426.534633 426.534633a49.861346 49.861346 0 0 0-0.102385 70.696631 49.810153 49.810153 0 0 0 70.747823-0.051193L511.926539 582.568906l426.534634 426.585825a49.810153 49.810153 0 0 0 70.747823 0.051193c19.606669-19.606669 19.453092-51.192347-0.102385-70.696631l-426.534633-426.534633 426.534633-426.585826a49.861346 49.861346 0 0 0 0.102385-70.69663 49.810153 49.810153 0 0 0-70.747823 0.102384L511.926539 441.278029z" fill="#5D5D5D" p-id="3935"></path></svg>