<?xml version="1.0" standalone="no"?><!DOCTYPE svg PUBLIC "-//W3C//DTD SVG 1.1//EN" "http://www.w3.org/Graphics/SVG/1.1/DTD/svg11.dtd"><svg t="1505353298750" class="icon" style="" viewBox="0 0 1024 1024" version="1.1" xmlns="http://www.w3.org/2000/svg" p-id="1643" xmlns:xlink="http://www.w3.org/1999/xlink" width="200" height="200"><defs><style type="text/css"></style></defs><path d="M1021.184 925.696l-91.904 91.584-202.752-201.92c-75.904 56.64-169.216 91.392-271.424 91.392C203.712 906.688 0 703.744 0 453.376 0 202.944 203.712 0 455.168 0c251.328 0 455.04 202.944 455.04 453.376 0 101.76-34.88 194.752-91.712 270.336L1021.184 925.696 1021.184 925.696zM455.168 129.6c-179.584 0-325.056 144.96-325.056 323.84 0 178.816 145.472 323.84 325.056 323.84 179.456 0 325.056-145.024 325.056-323.84C780.224 274.496 634.624 129.6 455.168 129.6L455.168 129.6z" p-id="1644" fill="#ffffff"></path></svg>