<?xml version="1.0" standalone="no"?><!DOCTYPE svg PUBLIC "-//W3C//DTD SVG 1.1//EN" "http://www.w3.org/Graphics/SVG/1.1/DTD/svg11.dtd"><svg t="1505447311506" class="icon" style="" viewBox="0 0 1024 1024" version="1.1" xmlns="http://www.w3.org/2000/svg" p-id="2124" xmlns:xlink="http://www.w3.org/1999/xlink" width="128" height="128"><defs><style type="text/css"></style></defs><path d="M971.538916 121.568473c-25.726108 0-44.894581 19.168473-44.894581 44.894581v856.023646H1016.433498V165.958621c0-25.221675-19.168473-44.390148-44.894582-44.390148zM52.461084 427.759606c-25.726108 0-44.894581 19.168473-44.894582 44.894581v549.328079h89.28473V472.654187c0-25.726108-19.168473-44.894581-44.390148-44.894581zM358.652217 0c-25.726108 0-44.894581 19.168473-44.894582 44.894581v977.087685h89.28473V44.894581c0.504433-25.726108-18.664039-44.894581-44.390148-44.894581zM665.347783 274.916256c-25.726108 0-44.894581 19.168473-44.894581 44.894581v702.675863h89.284729V319.306404c0-25.221675-19.168473-44.390148-44.390148-44.390148z" p-id="2125" fill="#31c27c"></path></svg>