<?xml version="1.0" standalone="no"?><!DOCTYPE svg PUBLIC "-//W3C//DTD SVG 1.1//EN" "http://www.w3.org/Graphics/SVG/1.1/DTD/svg11.dtd"><svg t="1505186031039" class="icon" style="" viewBox="0 0 1024 1024" version="1.1" xmlns="http://www.w3.org/2000/svg" p-id="14590" xmlns:xlink="http://www.w3.org/1999/xlink" width="128" height="128"><defs><style type="text/css"></style></defs><path d="M461.077214 508.784772l213.987652-161.850202c2.475378-1.429559 5.569856 0.357134 5.569856 3.215228L680.634722 673.850202c0 2.858094-3.094478 4.644787-5.569856 3.215228L461.077214 515.215228C458.601836 513.786693 458.601836 510.213307 461.077214 508.784772z" p-id="14591" fill="#31c27c"></path><path d="M347.078857 347.239516l73.783447 0c2.050706 0 3.712555 1.892093 3.712555 4.226255l0 321.067436c0 2.334161-1.662873 4.226255-3.712555 4.226255L347.078857 676.759461c-2.050706 0-3.712555-1.892093-3.712555-4.226255L343.366302 351.46577C343.366302 349.131609 345.028151 347.239516 347.078857 347.239516z" p-id="14592" fill="#31c27c"></path><path d="M512 94.491071c56.377008 0 111.051235 11.034311 162.504094 32.796964 49.713238 21.026896 94.366228 51.134611 132.719744 89.488127s68.461231 83.006506 89.488127 132.719744c21.762653 51.452859 32.796964 106.127086 32.796964 162.504094s-11.034311 111.051235-32.796964 162.504094c-21.026896 49.713238-51.134611 94.366228-89.488127 132.719744s-83.006506 68.461231-132.719744 89.488127c-51.452859 21.762653-106.127086 32.796964-162.504094 32.796964s-111.051235-11.034311-162.504094-32.796964c-49.713238-21.026896-94.366228-51.134611-132.719744-89.488127s-68.461231-83.006506-89.488127-132.719744c-21.762653-51.452859-32.796964-106.127086-32.796964-162.504094s11.034311-111.051235 32.796964-162.504094c21.026896-49.713238 51.134611-94.366228 89.488127-132.719744s83.006506-68.461231 132.719744-89.488127C400.948765 105.525382 455.622992 94.491071 512 94.491071M512 63.791885c-247.538793 0-448.208115 200.669322-448.208115 448.208115s200.669322 448.208115 448.208115 448.208115 448.208115-200.669322 448.208115-448.208115S759.537769 63.791885 512 63.791885L512 63.791885z" p-id="14593" fill="#31c27c"></path></svg>