<?xml version="1.0" standalone="no"?><!DOCTYPE svg PUBLIC "-//W3C//DTD SVG 1.1//EN" "http://www.w3.org/Graphics/SVG/1.1/DTD/svg11.dtd"><svg t="1505446736538" class="icon" style="" viewBox="0 0 1024 1024" version="1.1" xmlns="http://www.w3.org/2000/svg" p-id="4183" xmlns:xlink="http://www.w3.org/1999/xlink" width="128" height="128"><defs><style type="text/css"></style></defs><path d="M543.983971 703.003763l0-159.189669 159.411519 0c17.714989 0 32.190175-14.464193 32.190175-32.186178l0 0c0-17.718987-14.475186-32.186178-32.190175-32.186178l-159.411519 0 0-159.180676c0-17.720985-14.462195-32.187177-32.187177-32.187177l0 0c-17.714989 0-32.179183 14.466192-32.179183 32.187177l0 159.180676-158.963823 0c-17.720985 0-32.184179 14.467191-32.184179 32.186178l0 0c0 17.721984 14.463194 32.186178 32.184179 32.186178l158.956827 0 0 159.189669c0 17.709993 14.464193 32.179183 32.185178 32.179183l0 0C529.521976 735.239907 543.983971 720.713756 543.983971 703.003763z" p-id="4184" fill="#adadad"></path><path d="M882.329908 959.152063 139.591757 959.152063c-41.416272 0-75.110675-33.694403-75.110675-75.108628l0-743.237525c0-41.416272 33.694403-75.110675 75.110675-75.110675l742.738152 0c41.417295 0 75.110675 33.694403 75.110675 75.110675l0 743.237525C957.441607 925.45766 923.747203 959.152063 882.329908 959.152063zM139.591757 104.870466c-19.815301 0-35.936467 16.120143-35.936467 35.935444l0 743.237525c0 19.813255 16.121166 35.93442 35.936467 35.93442l742.738152 0c19.814278 0 35.936467-16.121166 35.936467-35.93442l0-743.237525c0-19.815301-16.122189-35.935444-35.936467-35.935444L139.591757 104.870466z" p-id="4185" fill="#adadad"></path></svg>