<?xml version="1.0" standalone="no"?><!DOCTYPE svg PUBLIC "-//W3C//DTD SVG 1.1//EN" "http://www.w3.org/Graphics/SVG/1.1/DTD/svg11.dtd"><svg t="1505216666139" class="icon" style="" viewBox="0 0 1024 1024" version="1.1" xmlns="http://www.w3.org/2000/svg" p-id="4357" xmlns:xlink="http://www.w3.org/1999/xlink" width="128" height="128"><defs><style type="text/css"></style></defs><path d="M512 32c-265.080 0-480 214.92-480 480v360c0 66.3 53.7 120 120 120s120-53.7 120-120v-180c0-66.3-53.7-120-120-120v-60c0-198.84 161.16-360 360-360s360 161.16 360 360v60c-66.24 0-120 53.7-120 120v180c0 66.3 53.7 120 120 120s120-53.7 120-120v-360c0-265.080-214.92-480-480-480z" p-id="4358" fill="#ffffff"></path></svg>