<?xml version="1.0" standalone="no"?><!DOCTYPE svg PUBLIC "-//W3C//DTD SVG 1.1//EN" "http://www.w3.org/Graphics/SVG/1.1/DTD/svg11.dtd"><svg t="1505137874592" class="icon" style="" viewBox="0 0 1024 1024" version="1.1" xmlns="http://www.w3.org/2000/svg" p-id="27557" xmlns:xlink="http://www.w3.org/1999/xlink" width="128" height="128"><defs><style type="text/css"></style></defs><path d="M838.186667 357.76l139.306666-79.36C1002.666667 263.04 1024 275.84 1024 301.44v428.373333c0 28.16-21.333333 38.4-46.506667 23.04l-139.306666-79.36c-25.813333-15.36-46.506667-30.72-46.506667-56.32v-205.653333c0-25.6 21.333333-38.4 46.506667-53.76m0 0M648.533333 176.853333H98.133333A97.706667 97.706667 0 0 0 0 274.133333v478.72a97.706667 97.706667 0 0 0 98.133333 97.28h550.4a97.706667 97.706667 0 0 0 98.133334-97.28V274.133333a97.706667 97.706667 0 0 0-98.133334-97.28z m-463.573333 298.666667a85.333333 85.333333 0 1 1 85.333333-85.333333 85.333333 85.333333 0 0 1-85.333333 85.333333z" p-id="27558" fill="#31c27c"></path></svg>