<?xml version="1.0" standalone="no"?><!DOCTYPE svg PUBLIC "-//W3C//DTD SVG 1.1//EN" "http://www.w3.org/Graphics/SVG/1.1/DTD/svg11.dtd"><svg t="1505217069937" class="icon" style="" viewBox="0 0 1024 1024" version="1.1" xmlns="http://www.w3.org/2000/svg" p-id="6591" xmlns:xlink="http://www.w3.org/1999/xlink" width="128" height="128"><defs><style type="text/css"></style></defs><path d="M511.672542 956.565145c-246.691495 0-446.670086-199.978591-446.670086-446.670086S264.980024 63.224973 511.672542 63.224973s446.670086 199.978591 446.670086 446.670086S758.364037 956.565145 511.672542 956.565145L511.672542 956.565145zM511.672542 91.152023c-231.273341 0-418.753269 187.479929-418.753269 418.753269 0 231.271294 187.479929 418.752246 418.753269 418.752246s418.753269-187.480952 418.753269-418.752246C930.425811 278.631952 742.944859 91.152023 511.672542 91.152023L511.672542 91.152023zM687.659719 534.331611c-14.46955 8.56098-249.027703 144.497998-266.150686 154.027026-12.543687 6.988158-30.717605-3.090385-30.717605-18.984377 0-16.135492 0-299.305807 0-310.435285 0-14.432711 16.005532-28.14092 30.717605-19.699668 11.790534 6.764054 246.041696 142.348032 266.150686 154.026002C700.864462 500.933967 700.641381 526.663978 687.659719 534.331611L687.659719 534.331611z" p-id="6592" fill="#fcf7f1"></path></svg>