<?xml version="1.0" standalone="no"?><!DOCTYPE svg PUBLIC "-//W3C//DTD SVG 1.1//EN" "http://www.w3.org/Graphics/SVG/1.1/DTD/svg11.dtd"><svg t="1505191402305" class="icon" style="" viewBox="0 0 1024 1024" version="1.1" xmlns="http://www.w3.org/2000/svg" p-id="2916" xmlns:xlink="http://www.w3.org/1999/xlink" width="128" height="128"><defs><style type="text/css"></style></defs><path d="M517.12 72.704c-242.688 0-439.296 196.608-439.296 439.296s196.608 439.296 439.296 439.296 439.296-196.608 439.296-439.296-196.608-439.296-439.296-439.296z m0 823.808c-211.968 0-384.512-172.544-384.512-384.512S305.152 127.488 517.12 127.488s384.512 172.544 384.512 384.512-172.544 384.512-384.512 384.512z m145.408-457.728L517.12 583.168 371.712 438.784c-10.752-10.752-28.16-10.752-38.912 0-10.752 10.752-10.752 28.16 0 38.912l164.864 163.84c5.12 5.12 12.288 8.192 19.456 8.192s13.824-2.56 19.456-8.192l164.864-163.84c10.752-10.752 10.752-28.16 0-38.912-10.752-10.752-28.16-10.752-38.912 0z" fill="#8a8a8b" p-id="2917"></path></svg>