<?xml version="1.0" standalone="no"?><!DOCTYPE svg PUBLIC "-//W3C//DTD SVG 1.1//EN" "http://www.w3.org/Graphics/SVG/1.1/DTD/svg11.dtd"><svg t="1505137962456" class="icon" style="" viewBox="0 0 1024 1024" version="1.1" xmlns="http://www.w3.org/2000/svg" p-id="32136" xmlns:xlink="http://www.w3.org/1999/xlink" width="128" height="128"><defs><style type="text/css"></style></defs><path d="M512 141.21142578125c204.7679901123047 0 370.78857421875 166.02058410644528 370.78857421875 370.78857421875s-166.02058410644528 370.78857421875-370.78857421875 370.78857421875S141.21142578125 716.7679901123047 141.21142578125 512 307.2320098876953 141.21142578125 512 141.21142578125zM423.7214200466872 512a88.27857995331287 88.27857995331287 0 1 0 176.55715990662574 0 88.27857995331287 88.27857995331287 0 0 0-176.55715990662574 0z m185.4560856878757-229.5490267306566l-44.185638910532 44.185638910532c38.62380957305431 4.016876462101937 76.19705200195312 20.79505944550037 105.7983400851488 50.39634680449963a174.6105191677809 174.6105191677809 0 0 1 50.39634680449963 105.82923865020277l44.185638910532-44.18563818633556a226.39732384979723 226.39732384979723 0 0 0-57.781219723820676-98.3825686007738 226.30462670624254 226.30462670624254 0 0 0-98.41346716582777-57.843017578124986z" p-id="32137" fill="#31c27c"></path></svg>