<?xml version="1.0" standalone="no"?><!DOCTYPE svg PUBLIC "-//W3C//DTD SVG 1.1//EN" "http://www.w3.org/Graphics/SVG/1.1/DTD/svg11.dtd"><svg t="1505217101064" class="icon" style="" viewBox="0 0 1024 1024" version="1.1" xmlns="http://www.w3.org/2000/svg" p-id="6761" xmlns:xlink="http://www.w3.org/1999/xlink" width="128" height="128"><defs><style type="text/css"></style></defs><path d="M512 65.654302c-246.508323 0-446.342628 199.830211-446.342628 446.342628 0 246.505253 199.834304 446.342628 446.342628 446.342628s446.342628-199.837374 446.342628-446.342628C958.342628 265.48349 758.508323 65.654302 512 65.654302zM512 936.019203c-234.1826 0-424.025343-189.843766-424.025343-424.022273 0-234.18567 189.842743-424.029436 424.025343-424.029436s424.025343 189.843766 424.025343 424.029436C936.025343 746.174414 746.1826 936.019203 512 936.019203z" p-id="6762" fill="#fcf7f1"></path><path d="M368.046401 355.865987l90.00285 0 0 312.328401-90.00285 0 0-312.328401Z" p-id="6763" fill="#fcf7f1"></path><path d="M565.874001 355.865987l90.00285 0 0 312.328401-90.00285 0 0-312.328401Z" p-id="6764" fill="#fcf7f1"></path></svg>