<?xml version="1.0" standalone="no"?><!DOCTYPE svg PUBLIC "-//W3C//DTD SVG 1.1//EN" "http://www.w3.org/Graphics/SVG/1.1/DTD/svg11.dtd"><svg t="1505187787083" class="icon" style="" viewBox="0 0 1024 1024" version="1.1" xmlns="http://www.w3.org/2000/svg" p-id="1438" xmlns:xlink="http://www.w3.org/1999/xlink" width="32" height="32"><defs><style type="text/css"></style></defs><path d="M866.068038 218.707141c0-45.64969-37.135782-82.790588-82.789565-82.790588l-2.079358 0-394.286018 71.687716c-44.615127 1.197268-80.544431 37.865399-80.544431 82.763982l0 377.999077c-17.210987-11.903098-38.060851-18.899442-60.525492-18.899442-58.81964 0-106.677625 47.853891-106.677625 106.677625 0 58.82271 47.853891 106.677625 106.677625 106.677625 58.82271 0 106.677625-47.854914 106.677625-106.677625l0-457.868125c0-30.426987 38.720883-44.547589 38.720883-44.547589l393.870556-71.613014c19.354813 0.954745 34.803667 17.003256 34.803667 36.59343l0 366.055047c-17.207917-11.903098-38.061874-18.898419-60.522422-18.898419-58.82271 0-106.676601 47.853891-106.676601 106.677625 0 58.82271 47.853891 106.677625 106.676601 106.677625 58.823734 0 106.677625-47.854914 106.677625-106.677625C866.068038 666.966421 866.068038 218.707141 866.068038 218.707141L866.068038 218.707141zM866.068038 218.707141" p-id="1439" fill="#000000"></path></svg>