<?xml version="1.0" standalone="no"?><!DOCTYPE svg PUBLIC "-//W3C//DTD SVG 1.1//EN" "http://www.w3.org/Graphics/SVG/1.1/DTD/svg11.dtd"><svg t="1505192190544" class="icon" style="" viewBox="0 0 1024 1024" version="1.1" xmlns="http://www.w3.org/2000/svg" p-id="38637" xmlns:xlink="http://www.w3.org/1999/xlink" width="128" height="128"><defs><style type="text/css"></style></defs><path d="M255.218 377.184c-35.291 0-63.903 29.674-63.903 66.292s28.611 66.292 63.903 66.292c35.291 0 63.903-29.674 63.903-66.292 0-36.615-28.611-66.292-63.903-66.292zM510.835 377.184c-35.291 0-63.903 29.674-63.903 66.292s28.614 66.292 63.903 66.292 63.903-29.674 63.903-66.292c0-36.615-28.614-66.292-63.903-66.292zM766.451 377.184c-35.291 0-63.904 29.674-63.904 66.292s28.614 66.292 63.904 66.292 63.903-29.674 63.903-66.292c0-36.615-28.614-66.292-63.903-66.292zM894.257 45.743h-766.846c-70.582 0-127.807 59.363-127.807 132.581v497.158c0 73.219 58.506 140.713 130.709 140.713h194.769c33.949 36.165 174.458 181.636 174.458 181.636 6.24 6.489 16.35 6.489 22.59 0 0 0 102.876-116.638 169.902-181.636h199.324c72.205 0 130.71-67.491 130.71-140.713v-497.158c0-73.218-57.227-132.581-127.809-132.581zM958.162 675.485c0 36.604-30.705 75.013-66.806 75.013h-196.017c-23.744 0-45.089 24.417-45.089 24.417l-137.637 142.755-137.605-142.755c0 0-26.213-24.417-48.676-24.417h-196.017c-36.102 0-66.805-38.411-66.805-75.013v-497.158c0-36.618 28.614-66.292 63.903-66.292h766.846c35.291 0 63.905 29.676 63.905 66.292v497.158z" p-id="38638" fill="#adadad"></path></svg>