<?xml version="1.0" standalone="no"?><!DOCTYPE svg PUBLIC "-//W3C//DTD SVG 1.1//EN" "http://www.w3.org/Graphics/SVG/1.1/DTD/svg11.dtd"><svg t="1505192108019" class="icon" style="" viewBox="0 0 1024 1024" version="1.1" xmlns="http://www.w3.org/2000/svg" p-id="37919" xmlns:xlink="http://www.w3.org/1999/xlink" width="128" height="128"><defs><style type="text/css"></style></defs><path d="M921.71264 829.52192c0 50.86208-41.37984 92.24192-92.24704 92.24192L191.9744 921.76384c-50.8672 0-92.24704-41.37984-92.24704-92.24192L99.72736 193.62816c0-50.8672 41.38496-92.24704 92.24704-92.24704L583.68 101.38112l0-47.616L191.9744 53.76512c-77.12256 0-139.86304 62.74048-139.86304 139.86304l0 635.88864c0 77.12256 62.74048 139.85792 139.86304 139.85792l637.49632 0c77.12256 0 139.86304-62.74048 139.86304-139.85792L969.33376 448l-47.62112 0L921.71264 829.52192z" p-id="37920" fill="#aeaeae"></path><path d="M945.52576 53.76512 680.96 53.76512l0 47.616 211.72224 0-497.408 497.408 33.78176 33.78176 492.66688-492.66688L921.72288 344.32l47.62112 0L969.344 77.57312C969.33376 64.42496 958.67392 53.76512 945.52576 53.76512z" p-id="37921" fill="#aeaeae"></path></svg>