<?xml version="1.0" standalone="no"?><!DOCTYPE svg PUBLIC "-//W3C//DTD SVG 1.1//EN" "http://www.w3.org/Graphics/SVG/1.1/DTD/svg11.dtd"><svg t="1505185975256" class="icon" style="" viewBox="0 0 1024 1024" version="1.1" xmlns="http://www.w3.org/2000/svg" p-id="13175" xmlns:xlink="http://www.w3.org/1999/xlink" width="128" height="128"><defs><style type="text/css"></style></defs><path d="M512.717999 1.548626C230.376643 1.548626 1.493592 230.431676 1.493592 512.774313s228.883051 511.225687 511.224407 511.225687S1023.942406 795.115669 1023.942406 512.774313 795.059356 1.548626 512.717999 1.548626zM512.717999 972.873592c-254.107733 0-460.101839-205.995386-460.101839-460.101839S258.610266 52.669915 512.717999 52.669915s460.101839 205.995386 460.101839 460.101839S766.825732 972.873592 512.717999 972.873592zM744.777653 476.541589c-79.55585-54.13279-223.814821-135.156635-305.95854-185.360267-33.678131-21.237931-61.996225-12.70897-64.717199 24.80105-1.970978 100.467417 0 294.316969 0 396.522431 1.711167 38.079556 35.281791 43.101711 64.418993 27.812551 82.050289-49.710888 223.071224-135.147676 305.536187-185.109415C743.516994 554.880296 806.671489 520.146284 744.777653 476.541589z" p-id="13176" fill="#31c27c"></path></svg>