<?xml version="1.0" standalone="no"?><!DOCTYPE svg PUBLIC "-//W3C//DTD SVG 1.1//EN" "http://www.w3.org/Graphics/SVG/1.1/DTD/svg11.dtd"><svg t="1505267002695" class="icon" style="" viewBox="0 0 1024 1024" version="1.1" xmlns="http://www.w3.org/2000/svg" p-id="7971" xmlns:xlink="http://www.w3.org/1999/xlink" width="128" height="128"><defs><style type="text/css"></style></defs><path d="M910.401756 120.17094 154.110937 120.17094c-22.39301 0-40.512692 18.123776-40.512692 40.512692l0 540.205389c0 22.36845 18.123776 40.520879 40.512692 40.520879l256.602216 0 0 67.525929-54.023404 54.019311 0 13.506619 351.133196 0 0-13.506619-54.019311-54.019311 0-67.525929 256.598122 0c22.369473 0 40.520879-18.152429 40.520879-40.520879L950.922634 160.683632C950.922634 138.294716 932.767136 120.17094 910.401756 120.17094L910.401756 120.17094 910.401756 120.17094zM896.895137 633.367185 167.617555 633.367185 167.617555 174.190251l729.277582 0L896.895137 633.367185 896.895137 633.367185 896.895137 633.367185zM896.895137 633.367185" p-id="7972" fill="#adadad"></path></svg>