<?xml version="1.0" standalone="no"?><!DOCTYPE svg PUBLIC "-//W3C//DTD SVG 1.1//EN" "http://www.w3.org/Graphics/SVG/1.1/DTD/svg11.dtd"><svg t="1505184473424" class="icon" style="" viewBox="0 0 1024 1024" version="1.1" xmlns="http://www.w3.org/2000/svg" p-id="12264" xmlns:xlink="http://www.w3.org/1999/xlink" width="48" height="48"><defs><style type="text/css"></style></defs><path d="M512 948.995h-0.006a22.279 22.279 0 0 1-15.814-6.593l-134.6-135.744c-1.72-1.729-174.936-175.825-199.759-200.649C88.546 532.735 45.51 450.504 37.367 368.211c-8.107-81.944 20.225-159.872 79.782-219.429 58.387-58.386 129.532-82.85 205.729-70.766 63.22 10.029 128.252 44.942 189.121 101.339 60.868-56.395 125.9-91.308 189.12-101.339 76.202-12.096 147.345 12.379 205.729 70.766 59.556 59.557 87.891 137.485 79.782 219.429-8.145 82.294-51.178 164.523-124.454 237.798-54.206 54.204-331.572 333.587-334.367 336.402a22.27 22.27 0 0 1-15.812 6.585zM284.96 119.533c-50.167 0-95.899 20.356-136.299 60.759-50.665 50.665-73.817 114.129-66.949 183.53 7.116 71.921 45.715 144.77 111.619 210.676 24.864 24.864 198.119 199.001 199.866 200.758l118.816 119.822c59.959-60.387 271.957-273.88 318.658-320.581 65.906-65.906 104.504-138.754 111.618-210.676 6.87-69.401-16.282-132.865-66.948-183.53-48.562-48.563-104.827-68.168-167.237-58.265-59.36 9.417-121.724 45.382-180.348 104.008a22.282 22.282 0 0 1-31.51 0.002c-58.627-58.627-120.99-94.593-180.349-104.009-10.487-1.663-20.804-2.492-30.937-2.492z" p-id="12265" fill="#adadad"></path></svg>