<?xml version="1.0" standalone="no"?><!DOCTYPE svg PUBLIC "-//W3C//DTD SVG 1.1//EN" "http://www.w3.org/Graphics/SVG/1.1/DTD/svg11.dtd"><svg t="1504881802998" class="icon" style="" viewBox="0 0 1024 1024" version="1.1" xmlns="http://www.w3.org/2000/svg" p-id="18502" xmlns:xlink="http://www.w3.org/1999/xlink" width="200" height="200"><defs><style type="text/css"></style></defs><path d="M887.5 159.14h-750c-69.033 0-125 55.963-125 125v500c0 69.037 55.967 125 125 125h750c69.037 0 125-55.963 125-125v-500c0-69.038-55.963-125-125-125z m84.258 627.066c0 46.025-37.308 83.333-83.333 83.333H132.592c-46.025 0-83.333-37.308-83.333-83.333V281.823c0-46.025 37.308-83.333 83.333-83.333h755.833c46.025 0 83.333 37.308 83.333 83.333v504.383z m-579.846-83.879l320-178.054-320-178.042v356.096z" p-id="18503" fill="#31C27C"></path></svg>