<?xml version="1.0" standalone="no"?><!DOCTYPE svg PUBLIC "-//W3C//DTD SVG 1.1//EN" "http://www.w3.org/Graphics/SVG/1.1/DTD/svg11.dtd"><svg t="1504881543736" class="icon" style="" viewBox="0 0 1024 1024" version="1.1" xmlns="http://www.w3.org/2000/svg" p-id="10330" xmlns:xlink="http://www.w3.org/1999/xlink" width="200" height="200"><defs><style type="text/css"></style></defs><path d="M96 512C96 282.249546 282.249546 96 512 96 741.750454 96 928 282.249546 928 512 928 741.750464 741.750454 928 512 928 282.249546 928 96 741.750464 96 512ZM880 512C880 308.759213 715.240787 144 512 144 308.759213 144 144 308.759213 144 512 144 715.2408 308.759213 880 512 880 715.240787 880 880 715.2408 880 512ZM479.861328 552C479.861328 538.745152 490.734198 528 504.178262 528L647.544397 528C660.974266 528 671.861328 538.652768 671.861328 552 671.861328 565.254848 660.988458 576 647.544397 576L504.178262 576C490.74839 576 479.861328 565.347232 479.861328 552ZM479.861328 344.083859C479.861328 330.78271 490.514083 320 503.861328 320L503.861328 320C517.116163 320 527.861328 331 527.861328 344.083859L527.861328 551.916128C527.861328 565.21728 517.208573 576 503.861328 576L503.861328 576C490.606493 576 479.861328 565 479.861328 551.916128L479.861328 344.083859Z" p-id="10331" fill="#31C27C"></path></svg>