<?xml version="1.0" standalone="no"?><!DOCTYPE svg PUBLIC "-//W3C//DTD SVG 1.1//EN" "http://www.w3.org/Graphics/SVG/1.1/DTD/svg11.dtd"><svg t="1505224469565" class="icon" style="" viewBox="0 0 1024 1024" version="1.1" xmlns="http://www.w3.org/2000/svg" p-id="14950" xmlns:xlink="http://www.w3.org/1999/xlink" width="16" height="16"><defs><style type="text/css"></style></defs><path d="M924.166247 477.434763 543.635511 477.434763 543.635511 96.907097c0-18.275225-14.814404-33.090653-33.089629-33.090653-18.275225 0-33.089629 14.815427-33.089629 33.090653l0 380.527666L96.92654 477.434763c-18.275225 0-33.089629 14.815427-33.089629 33.090653 0 18.275225 14.814404 33.089629 33.089629 33.089629l380.529713 0 0 380.529713c0 18.275225 14.814404 33.089629 33.089629 33.089629 18.275225 0 33.089629-14.814404 33.089629-33.089629L543.635511 543.615045l380.530736 0c18.275225 0 33.089629-14.814404 33.089629-33.089629C957.255877 492.25019 942.441473 477.434763 924.166247 477.434763z" p-id="14951" fill="#000000"></path></svg>