<?xml version="1.0" standalone="no"?><!DOCTYPE svg PUBLIC "-//W3C//DTD SVG 1.1//EN" "http://www.w3.org/Graphics/SVG/1.1/DTD/svg11.dtd"><svg t="1505223275776" class="icon" style="" viewBox="0 0 1024 1024" version="1.1" xmlns="http://www.w3.org/2000/svg" p-id="13305" xmlns:xlink="http://www.w3.org/1999/xlink" width="16" height="16"><defs><style type="text/css"></style></defs><path d="M511.992325 0.607844c-282.439674 0-511.397273 228.957599-511.397273 511.38704 0 282.443767 228.957599 511.398296 511.397273 511.398296 282.454 0 511.412622-228.954529 511.412622-511.398296C1023.404947 229.564419 794.446325 0.607844 511.992325 0.607844zM511.992325 984.058312C251.276419 984.058312 39.92992 772.72921 39.92992 511.994883 39.92992 251.28614 251.274372 39.941688 511.992325 39.941688c260.708743 0 472.071615 211.344452 472.071615 472.053196C984.065987 772.72921 772.703115 984.058312 511.992325 984.058312z" p-id="13306" fill="#c8d8cd"></path><path d="M273.588587 521.713222c15.19405-0.51984 30.448476-0.1361 45.664016-0.1361l0 0.098237c13.693884 0 27.448142 0.691755 41.069371-0.287549 6.875594-0.499373 18.49319 5.378497 18.823718-8.990768 0.229221-10.507308-2.576685-21.170159-14.44499-22.590508-31.697933-3.78214-63.661925-4.111644-95.336322 0.287549-7.644097 1.057075-16.463973 7.339152-13.732769 17.654079C257.743714 515.835352 263.158027 522.0591 273.588587 521.713222z" p-id="13307" fill="#c8d8cd"></path><path d="M280.713868 456.57569c24.321942-0.096191 48.871057-1.998517 72.922846 0.575098 29.54592 3.188622 51.173496-6.759961 70.576405-34.728966-50.331315 0-97.16497 0.230244-143.994532-0.153496-12.717649-0.113587-24.705682 1.940189-24.186865 16.48137C256.51063 451.92681 267.846816 456.613552 280.713868 456.57569z" p-id="13308" fill="#c8d8cd"></path><path d="M430.779675 592.480986c6.954389-0.057305 17.117866-1.113357 7.952112-10.680247-10.94426-11.429307-20.763906-24.743544-40.953737-23.954575-38.689161 1.537006-77.471442 0.826831-116.215862 0.192382-13.793144-0.232291-26.41051 2.919493-25.892717 17.576307 0.49528 14.136975 13.443174 17.555841 26.985608 17.248849 23.532973-0.536212 47.100738-0.152473 70.653153-0.152473l0-0.153496C379.144668 592.558757 404.965753 592.69281 430.779675 592.480986z" p-id="13309" fill="#c8d8cd"></path><path d="M580.07698 675.870208c-17.786085 13.140275-42.798758 5.704932-63.160505 17.308201-6.260587 3.573385-11.469216 8.067746-14.830777 13.178137-17.652032 26.798343-33.882692 54.515614-51.444673 81.389682-10.353812 15.867386-6.374174 29.79356 6.684236 39.533388 13.94971 10.373255 30.91101 10.200316 42.11212-4.91801 31.578206-42.548048 62.140269-85.848227 92.799546-129.048121C600.744695 681.326477 593.252047 677.463496 580.07698 675.870208z" p-id="13310" fill="#c8d8cd"></path><path d="M766.561231 446.48896c-11.374048-26.02984-33.270754-13.696953-51.578726-14.753005-17.246803-0.99977-34.941813 18.632359-49.555649 5.686513-12.623505-11.180644-19.999496-29.811979-25.765827-46.487777-7.447623-21.532409-24.739451-36.70804-38.492686-59.164494 48.735981 18.786878 78.069053 1.288343 92.302219-21.820981 16.387225-26.604938 11.886725-61.506842-10.352789-82.024132-22.475897-20.72809-56.362682-23.857361-81.313957-7.451716-31.909757 20.956288-36.426631 47.774073-14.854313 100.92562-34.650171-10.872628-63.349817-27.334555-93.853551-39.378869-12.159948-4.801353-23.706935-16.788361-37.845956-11.006681-37.416168 15.309684-74.683956 31.138184-111.063515 48.714492-22.443152 10.834766-27.220968 26.317389-17.769712 43.566238 7.699356 14.08274 27.140127 18.594497 46.331211 10.219759 16.427134-7.166213 32.980135-14.196327 48.738028-22.686698 26.386974-14.21577 50.306756-14.446014 76.066443 3.495614 16.787338 11.698436 14.368242 18.805298 1.979074 30.581506-28.067242 26.662243-58.029648 51.500954-81.468476 82.658581-17.21201 22.87601-16.402575 46.50415 4.225231 66.215074 25.396413 24.282033 51.980885 47.369867 77.763085 71.26816 7.988951 7.375991 14.982226 14.811334-3.786233 18.306948-25.14468 4.686742-49.865711 11.43033-74.93569 16.560164-18.326391 3.726881-33.347502 20.764929-30.196743 35.728736 3.707438 17.633612 25.546839 28.949332 44.334741 24.512277 49.635467-11.738345 99.274004-23.321148 149.178601-33.750685 25.586748-5.340635 37.57478-30.870078 22.168905-51.462069-14.329357-19.114336-29.734208-37.420261-43.567261-56.860009-32.466436-45.62206-32.193213-45.814442 8.703219-85.732593 22.995737-22.434965 22.798239-22.320355 40.278355 6.878664 7.611352 12.678764 14.100136 28.122501 32.852222 26.625404 36.997636-2.938935 72.804143-12.429077 108.415198-21.977547C766.98488 480.258065 772.365424 459.781708 766.561231 446.48896z" p-id="13311" fill="#c8d8cd"></path></svg>