<?xml version="1.0" standalone="no"?><!DOCTYPE svg PUBLIC "-//W3C//DTD SVG 1.1//EN" "http://www.w3.org/Graphics/SVG/1.1/DTD/svg11.dtd"><svg t="1505186956057" class="icon" style="" viewBox="0 0 1255 1024" version="1.1" xmlns="http://www.w3.org/2000/svg" p-id="4640" xmlns:xlink="http://www.w3.org/1999/xlink" width="245.1171875" height="200"><defs><style type="text/css"></style></defs><path d="M157.233548 326.622968L0 164.500645l39.902968-32.635871 90.739613 72.571871C168.134194 159.677935 250.384516 70.160516 364.114581 0l9.678451 22.990452c-104.051613 96.784516-188.71329 233.472-216.526451 303.632516z m0 363.354838L0 527.855484l39.902968-32.635871 90.739613 72.571871C168.134194 523.032774 250.384516 433.515355 364.114581 363.354839l9.678451 22.990451c-104.051613 96.784516-188.71329 233.472-216.526451 303.632516z m0 330.322581L0 858.178065l39.902968-32.635871 90.739613 72.571871C168.134194 853.355355 250.384516 763.837935 364.114581 693.677419l9.678451 22.990452c-104.051613 96.784516-188.71329 233.472-216.526451 303.632516z m1050.590968-872.712258c26.128516 0 47.40129 22.23071 47.40129 49.548387s-21.272774 49.548387-47.40129 49.548387h-731.003871c-26.128516 0-47.40129-22.23071-47.40129-49.548387s21.272774-49.548387 47.40129-49.548387h731.003871z m0 330.322581c26.128516 0 47.40129 22.23071 47.40129 49.548387s-21.272774 49.548387-47.40129 49.548387h-731.003871c-26.128516 0-47.40129-22.23071-47.40129-49.548387s21.272774-49.548387 47.40129-49.548387h731.003871z m0 330.32258c26.128516 0 47.40129 22.23071 47.40129 49.548387s-21.272774 49.548387-47.40129 49.548388h-731.003871c-26.128516 0-47.40129-22.23071-47.40129-49.548388s21.272774-49.548387 47.40129-49.548387h731.003871z" fill="#000000" p-id="4641"></path></svg>