<?xml version="1.0" standalone="no"?><!DOCTYPE svg PUBLIC "-//W3C//DTD SVG 1.1//EN" "http://www.w3.org/Graphics/SVG/1.1/DTD/svg11.dtd"><svg t="1505201505341" class="icon" style="" viewBox="0 0 1025 1024" version="1.1" xmlns="http://www.w3.org/2000/svg" p-id="3029" xmlns:xlink="http://www.w3.org/1999/xlink" width="32.03125" height="32"><defs><style type="text/css"></style></defs><path d="M324.913131 284.961616 324.913131 284.961616z" p-id="3030" fill="#acb9b3"></path><path d="M725.591919 77.058586 725.591919 77.058586z" p-id="3031" fill="#acb9b3"></path><path d="M1024 290.133333l-42.537374 56.630303c0 0-54.690909 67.361616-54.949495 67.749495-0.258586 0.387879-0.517172 0.775758-0.775758 1.034343l-20.557576 27.022222L515.620202 963.10303c-3.490909 4.654545-9.050505 7.369697-14.868687 7.369697l0 0-2.456566 0c-5.947475 0-11.636364-2.973737-15.127273-7.757576L7.240404 291.814141c-2.19798-3.10303-3.361616-6.852525-3.361616-10.731313l0-1.551515c0-2.327273 0.517172-4.654545 1.292929-6.852525L88.177778 65.939394c2.844444-6.981818 9.567677-11.636364 17.19596-11.636364l812.088889 0c7.628283 0 14.351515 4.654545 17.19596 11.636364l88.694949 220.70303 0.646465 1.939394L1024 290.133333zM976.808081 293.236364 907.507071 89.212121 122.311111 91.022222 49.519192 287.159596l450.456566 635.086869 375.59596-501.785859c0 0 0-0.129293 0.129293-0.129293l20.29899-26.634343C900.137374 387.361616 976.808081 293.236364 976.808081 293.236364z" p-id="3032" fill="#acb9b3"></path></svg>