<?xml version="1.0" standalone="no"?><!DOCTYPE svg PUBLIC "-//W3C//DTD SVG 1.1//EN" "http://www.w3.org/Graphics/SVG/1.1/DTD/svg11.dtd"><svg t="1504881122035" class="icon" style="" viewBox="0 0 1024 1024" version="1.1" xmlns="http://www.w3.org/2000/svg" p-id="7385" xmlns:xlink="http://www.w3.org/1999/xlink" width="200" height="200"><defs><style type="text/css"></style></defs><path d="M755.60725 458.147488c-11.988032-11.989055-31.426757-11.989055-43.414789 0L551.938618 618.401332l0-345.181647c0-16.954137-13.745049-30.699186-30.699186-30.699186s-30.699186 13.745049-30.699186 30.699186l0 345.181647L330.286402 458.147488c-11.989055-11.989055-31.426757-11.989055-43.415812 0-11.988032 11.989055-11.988032 31.426757 0 43.415812l212.651214 212.650191c0.36225 0.36225 0.734734 0.716314 1.11438 1.060145 0.166799 0.151449 0.338714 0.292666 0.50756 0.440022 0.207731 0.180102 0.413416 0.363274 0.626263 0.538259 0.229221 0.188288 0.463558 0.367367 0.696872 0.547469 0.158612 0.122797 0.314155 0.248663 0.475837 0.36839 0.26299 0.195451 0.530073 0.381693 0.798179 0.567935 0.13917 0.097214 0.277316 0.196475 0.418532 0.291642 0.278339 0.186242 0.559748 0.363274 0.843204 0.540306 0.140193 0.088004 0.279363 0.178055 0.420579 0.26299 0.279363 0.167822 0.561795 0.327458 0.844228 0.48607 0.155543 0.086981 0.310062 0.176009 0.467651 0.260943 0.268106 0.144286 0.540306 0.280386 0.811482 0.415462 0.181125 0.090051 0.361227 0.182149 0.544399 0.26913 0.249687 0.118704 0.50142 0.229221 0.753153 0.340761 0.212848 0.094144 0.425695 0.189312 0.641613 0.279363 0.224104 0.093121 0.450255 0.179079 0.676405 0.26606 0.248663 0.096191 0.497327 0.192382 0.750083 0.282433 0.197498 0.070608 0.397043 0.135076 0.595564 0.201591 0.281409 0.094144 0.563842 0.188288 0.849344 0.274246 0.177032 0.053212 0.355087 0.101307 0.532119 0.151449 0.305969 0.085958 0.61296 0.171915 0.923022 0.248663 0.165776 0.040932 0.333598 0.076748 0.499373 0.115634 0.320295 0.073678 0.64059 0.147356 0.964978 0.210801 0.168846 0.032746 0.337691 0.060375 0.506537 0.090051 0.320295 0.057305 0.64059 0.115634 0.963954 0.162706 0.194428 0.028653 0.388856 0.049119 0.583285 0.073678 0.297782 0.037862 0.594541 0.077771 0.895393 0.107447 0.26299 0.025583 0.527003 0.040932 0.791016 0.060375 0.234337 0.016373 0.467651 0.038886 0.704035 0.050142 0.506537 0.024559 1.013073 0.038886 1.51961 0.038886s1.013073-0.013303 1.51961-0.038886c0.236384-0.011256 0.468674-0.033769 0.704035-0.050142 0.264013-0.019443 0.528026-0.034792 0.791016-0.060375 0.299829-0.029676 0.597611-0.069585 0.895393-0.107447 0.194428-0.024559 0.388856-0.045025 0.583285-0.073678 0.323365-0.047072 0.64366-0.105401 0.963954-0.162706 0.168846-0.030699 0.337691-0.057305 0.506537-0.090051 0.324388-0.063445 0.644683-0.137123 0.964978-0.210801 0.166799-0.038886 0.333598-0.073678 0.499373-0.115634 0.310062-0.076748 0.617054-0.162706 0.923022-0.248663 0.178055-0.050142 0.356111-0.098237 0.532119-0.151449 0.285502-0.085958 0.566912-0.180102 0.849344-0.274246 0.198521-0.066515 0.398066-0.130983 0.595564-0.201591 0.251733-0.090051 0.50142-0.186242 0.750083-0.283456 0.225127-0.086981 0.451278-0.172939 0.675382-0.26606 0.215918-0.090051 0.429789-0.185218 0.64366-0.279363 0.251733-0.110517 0.502443-0.222057 0.75213-0.339738 0.183172-0.086981 0.363274-0.179079 0.544399-0.26913 0.272199-0.135076 0.543376-0.272199 0.811482-0.415462 0.157589-0.084934 0.312108-0.172939 0.467651-0.260943 0.283456-0.158612 0.565888-0.317225 0.844228-0.48607 0.14224-0.085958 0.280386-0.176009 0.420579-0.26299 0.282433-0.176009 0.564865-0.354064 0.843204-0.540306 0.141216-0.095167 0.278339-0.194428 0.418532-0.291642 0.268106-0.186242 0.535189-0.37146 0.798179-0.567935 0.160659-0.119727 0.317225-0.245593 0.475837-0.36839 0.233314-0.181125 0.467651-0.35918 0.696872-0.547469 0.212848-0.174985 0.418532-0.358157 0.626263-0.538259 0.168846-0.146333 0.340761-0.288572 0.50756-0.440022 0.379647-0.344854 0.75213-0.697895 1.11438-1.060145l212.650191-212.650191C767.596306 489.574245 767.596306 470.13552 755.60725 458.147488z" p-id="7386" fill="#31C27C"></path><path d="M873.560686 688.419012c0-16.95516-13.744026-30.699186-30.699186-30.699186s-30.699186 13.744026-30.699186 30.699186c0 0.046049 0.00307 0.091074 0.00307 0.137123l-0.00307 0 0 72.984245c0 23.058159-18.760273 41.818431-41.818431 41.818431L272.13498 803.358811c-23.059182 0-41.818431-18.760273-41.818431-41.818431L230.316549 688.555112l-0.00307 0c0-0.046049 0.00307-0.091074 0.00307-0.137123 0-16.95516-13.744026-30.699186-30.699186-30.699186s-30.699186 13.744026-30.699186 30.699186c0 0.046049 0.00307 0.091074 0.00307 0.137123l-0.00307 0 0 72.984245c0 56.914244 46.303582 103.216803 103.216803 103.216803l498.208902 0c56.914244 0 103.216803-46.302559 103.216803-103.216803L873.560686 688.555112l-0.00307 0C873.557616 688.510086 873.560686 688.464037 873.560686 688.419012z" p-id="7387" fill="#31C27C"></path></svg>