<?xml version="1.0" standalone="no"?><!DOCTYPE svg PUBLIC "-//W3C//DTD SVG 1.1//EN" "http://www.w3.org/Graphics/SVG/1.1/DTD/svg11.dtd"><svg t="1505188113591" class="icon" style="" viewBox="0 0 1024 1024" version="1.1" xmlns="http://www.w3.org/2000/svg" p-id="2781" xmlns:xlink="http://www.w3.org/1999/xlink" width="64" height="64"><defs><style type="text/css"></style></defs><path d="M999.437049 605.192684V481.330343c0-64.947508-12.707121-127.969694-37.864654-187.397947-24.259049-57.374577-58.914834-108.844835-103.197225-152.998872-44.154037-44.154037-95.624295-78.938176-152.998872-103.197225C646.0764 12.707121 583.054213 0 518.106706 0H505.784649c-64.947508 0-127.969694 12.707121-187.397947 37.864654-57.374577 24.259049-108.844835 58.914834-152.998871 103.197225-44.154037 44.154037-78.809821 95.624295-103.068871 152.870517C37.161427 353.360649 24.454306 416.382835 24.454306 481.330343v351.948747c0 40.303394 32.858818 73.162212 73.162212 73.162212h71.621955c40.303394 0 73.162212-32.858818 73.162212-73.162212v-227.187922c0-40.303394-32.858818-73.162212-73.162212-73.162212H97.616518c-3.978998 0-7.82964 0.25671-11.551928 0.898483V481.330343C86.06459 249.906714 274.36102 61.610284 505.784649 61.610284h12.322057c231.423629 0 419.720059 188.29643 419.720059 419.720059v52.497096c-3.722288-0.641774-7.572931-0.898483-11.551928-0.898483h-71.621955c-40.303394 0-73.162212 32.858818-73.162213 73.162212v227.187922c0 24.130695 11.808638 45.694294 29.906659 58.914834-59.043189 24.900823-132.975529 55.449256-160.956867 64.819152-12.963831 4.364062-35.939332 7.059512-60.326736 8.728124-6.674447-12.450412-19.766633-20.921826-34.784139-20.921826H476.263055c-21.820309 0-39.533265 17.712957-39.533266 39.533266s17.712957 39.533265 39.533266 39.533265h19.509923s16.814473 0.25671 40.431749 0h19.124859c2.053676 0 3.978998-0.128355 5.904319-0.385064 41.073523-1.026838 90.233395-3.850643 112.952187-11.166864 39.533265-12.707121 159.544964-69.568279 234.889207-105.76432h17.199538c40.303394 0 73.162212-32.858818 73.162212-73.162213v-227.187921-1.026839zM97.616518 594.53924h71.621955c6.417738 0 11.551928 5.13419 11.551929 11.551928v227.187922c0 6.417738-5.13419 11.551928-11.551929 11.551928H97.616518c-6.417738 0-11.551928-5.13419-11.551928-11.551928v-227.187922c0-6.289383 5.13419-11.551928 11.551928-11.551928z m745.484435 11.551928c0-6.417738 5.13419-11.551928 11.551929-11.551928h71.621955c6.161028 0 11.295219 4.877481 11.551928 11.038509v227.701341c0 6.417738-5.13419 11.551928-11.551928 11.551928h-71.621955c-6.417738 0-11.551928-5.13419-11.551929-11.551928v-227.187922z" p-id="2782" fill="#31C27C"></path></svg>