<?xml version="1.0" standalone="no"?><!DOCTYPE svg PUBLIC "-//W3C//DTD SVG 1.1//EN" "http://www.w3.org/Graphics/SVG/1.1/DTD/svg11.dtd"><svg t="1505223338327" class="icon" style="" viewBox="0 0 1024 1024" version="1.1" xmlns="http://www.w3.org/2000/svg" p-id="14227" xmlns:xlink="http://www.w3.org/1999/xlink" width="16" height="16"><defs><style type="text/css"></style></defs><path d="M379.629 675.189c0 42.366 29.582 59.215 66.010 37.684l289.645-161.603c36.476-21.535 36.476-56.449 0-77.987l-289.645-161.603c-36.426-21.535-66.010-4.675-66.010 37.684v325.824zM408.409 703.966v-383.386l335.378 191.681-335.378 191.681zM10.681 512.274c0 277.869 225.244 503.126 503.126 503.126s503.126-225.244 503.126-503.126-225.244-503.126-503.126-503.126-503.126 225.244-503.126 503.126zM39.414 512.274c0-261.877 212.519-474.397 474.397-474.397s474.397 212.519 474.397 474.397-212.519 474.397-474.397 474.397-474.397-212.519-474.397-474.397z" p-id="14228" fill="#c8d8cd"></path></svg>