<?xml version="1.0" standalone="no"?><!DOCTYPE svg PUBLIC "-//W3C//DTD SVG 1.1//EN" "http://www.w3.org/Graphics/SVG/1.1/DTD/svg11.dtd"><svg t="1504880770197" class="icon" style="" viewBox="0 0 1024 1024" version="1.1" xmlns="http://www.w3.org/2000/svg" p-id="3872" xmlns:xlink="http://www.w3.org/1999/xlink" width="200" height="200"><defs><style type="text/css"></style></defs><path d="M789.333333 151.466667L320 187.733333c-21.333333 2.133333-38.4 21.333333-38.4 42.666667v486.4c-12.8-6.4-27.733333-12.8-42.666667-12.8-46.933333 0-85.333333 38.4-85.333333 85.333333s38.4 85.333333 85.333333 85.333334 85.333333-38.4 85.333334-85.333334V234.666667l469.333333-42.666667v396.8c-12.8-6.4-27.733333-12.8-42.666667-12.8-46.933333 0-85.333333 38.4-85.333333 85.333333s38.4 85.333333 85.333333 85.333334 85.333333-38.4 85.333334-85.333334V194.133333c0-25.6-21.333333-44.8-46.933334-42.666666z" p-id="3873" fill="#31C27C"></path></svg>