<?xml version="1.0" standalone="no"?><!DOCTYPE svg PUBLIC "-//W3C//DTD SVG 1.1//EN" "http://www.w3.org/Graphics/SVG/1.1/DTD/svg11.dtd"><svg t="1505311894692" class="icon" style="" viewBox="0 0 1024 1024" version="1.1" xmlns="http://www.w3.org/2000/svg" p-id="5185" xmlns:xlink="http://www.w3.org/1999/xlink" width="16" height="16"><defs><style type="text/css"></style></defs><path d="M863.976448 622.589952C803.309568 622.589952 754.128896 573.305856 754.128896 512.510976 754.128896 451.71712 803.309568 402.433024 863.976448 402.433024 924.644352 402.433024 973.824 451.71712 973.824 512.510976 973.824 573.305856 924.644352 622.589952 863.976448 622.589952ZM511.488 622.589952C450.82112 622.589952 401.640448 573.305856 401.640448 512.510976 401.640448 451.71712 450.82112 402.433024 511.488 402.433024 572.15488 402.433024 621.335552 451.71712 621.335552 512.510976 621.335552 573.305856 572.15488 622.589952 511.488 622.589952ZM158.999552 622.589952C98.332672 622.589952 49.152 573.305856 49.152 512.510976 49.152 451.71712 98.332672 402.433024 158.999552 402.433024 219.666432 402.433024 268.847104 451.71712 268.847104 512.510976 268.847104 573.305856 219.666432 622.589952 158.999552 622.589952Z" p-id="5186"></path></svg>