<?xml version="1.0" standalone="no"?><!DOCTYPE svg PUBLIC "-//W3C//DTD SVG 1.1//EN" "http://www.w3.org/Graphics/SVG/1.1/DTD/svg11.dtd"><svg t="1505438700746" class="icon" style="" viewBox="0 0 1024 1024" version="1.1" xmlns="http://www.w3.org/2000/svg" p-id="2390" xmlns:xlink="http://www.w3.org/1999/xlink" width="128" height="128"><defs><style type="text/css"></style></defs><path d="M878.028283 244.363636H145.842424c-54.044444 0-97.486869 43.830303-97.486868 97.874748v341.074747c0 53.915152 43.70101 97.874747 97.486868 97.874748h732.315152c54.044444 0 97.486869-43.830303 97.486868-97.874748V342.238384c-0.129293-53.915152-43.70101-97.874747-97.616161-97.874748z m48.743434 438.949495c0 27.022222-21.850505 49.00202-48.614141 49.002021H145.842424c-26.892929 0-48.614141-21.979798-48.614141-49.002021V342.238384c0-27.022222 21.850505-49.00202 48.614141-49.00202h732.315152c26.892929 0 48.614141 21.979798 48.614141 49.00202v341.074747z" p-id="2391" fill="#36c37f"></path><path d="M338.10101 380.638384c-11.894949 18.488889-24.048485 34.00404-36.719192 46.674747 2.068687 3.878788 3.490909 7.240404 4.525253 10.214142 8.791919 24.307071 13.705051 58.957576 14.480808 103.951515 0 48.614141-6.076768 78.092929-18.10101 88.307071-7.49899 5.171717-17.066667 7.886869-28.961616 7.886868l-24.69495-0.258586-8.40404-26.763636c9.69697 1.163636 18.747475 1.810101 27.151515 1.810101 8.274747 0 13.705051-1.551515 16.549495-4.783838 6.206061-7.369697 9.309091-29.99596 9.309091-67.490909 0-8.791919-0.258586-17.19596-0.905051-24.953536-14.610101 19.523232-31.288889 35.943434-49.777778 49.389899l-16.032323-24.048485c26.375758-17.454545 46.933333-38.141414 61.80202-62.060606-2.19798-11.507071-4.783838-21.074747-7.49899-28.961616l-1.163636-2.715151c-9.179798 7.240404-21.721212 15.773737-37.365657 25.6l-15.385858-24.953536c13.317172-6.464646 26.505051-14.99798 39.822222-25.6-8.016162-12.670707-18.488889-24.565657-31.288889-35.814141l22.238384-17.454546c10.989899 10.989899 20.816162 22.49697 29.220202 34.39192 9.050505-10.214141 18.230303-22.49697 27.410101-36.719192l23.789899 14.351515z m-0.387879 30.771717H396.153535v-47.321212h28.573738v47.321212h59.991919v126.836364h-59.60404v59.60404c10.60202-1.551515 22.367677-3.620202 35.296969-6.076768-4.266667-15.127273-8.016162-27.151515-11.50707-36.20202l23.143434-7.886869c10.084848 25.729293 19.135354 55.078788 27.151515 88.048485l-26.246465 6.59394-5.688889-24.953536c-32.581818 6.981818-77.963636 13.187879-136.145454 18.359596l-4.525253-28.961616c25.858586-1.551515 49.260606-3.361616 70.206061-5.430303v-63.224242h-59.086869v-126.707071z m59.345455 100.589899v-74.472727h-31.288889V512h31.288889z m59.991919 0v-74.472727h-32.193939V512h32.193939zM697.276768 529.19596c4.654545 13.834343 6.981818 28.961616 7.240404 45.252525 0 24.048485-3.361616 40.727273-10.214142 50.036363-7.886869 10.860606-25.470707 16.290909-52.751515 16.29091h-9.69697l-9.696969-25.341415h15.385858c16.937374 0 27.410101-2.327273 31.676768-6.981818 5.042424-6.206061 7.49899-17.583838 7.49899-34.00404l-0.258586-8.791919c-32.193939 24.048485-74.731313 44.347475-127.741414 60.896969l-14.480808-24.436363c58.69899-16.420202 104.468687-37.753535 137.438384-63.870707-1.551515-5.171717-3.878788-10.989899-6.59394-17.454546-28.185859 20.945455-65.680808 38.141414-112.743434 51.846465l-14.222222-24.69495c49.389899-12.670707 87.660606-28.70303 114.812121-48.226262-4.39596-5.818182-7.369697-9.567677-8.791919-11.119192l-2.973738 1.551515c-19.523232 9.179798-47.062626 19.135354-82.876767 29.866667l-14.480808-23.789899c27.668687-5.818182 53.656566-13.705051 77.70505-23.531314 8.40404-3.620202 15.385859-6.723232 20.816162-9.30909h-67.490909v-26.505051h178.941414v26.505051h-66.844445c-7.240404 4.783838-14.222222 9.309091-20.816161 13.575757 8.40404 9.438384 15.773737 19.652525 21.979798 30.771717 26.763636-7.886869 51.975758-19.393939 75.894949-34.650505l19.264647 19.264647c-15.515152 9.826263-32.193939 18.359596-50.036364 25.6 13.705051 34.909091 36.072727 63.353535 67.232323 85.333333L780.153535 626.812121c-31.935354-26.763636-55.208081-60.379798-69.559596-100.977778l-13.317171 3.361617zM671.288889 360.727273c2.973737 6.852525 6.076768 15.515152 9.309091 26.246464h113.00202v56.113132h-28.573737v-29.478788H563.717172v29.478788h-28.573738v-56.113132h116.622223c-2.585859-6.852525-5.818182-13.834343-9.69697-21.074747l29.220202-5.171717z" p-id="2392" fill="#36c37f"></path></svg>