<?xml version="1.0" standalone="no"?><!DOCTYPE svg PUBLIC "-//W3C//DTD SVG 1.1//EN" "http://www.w3.org/Graphics/SVG/1.1/DTD/svg11.dtd"><svg t="1505399889711" class="icon" style="" viewBox="0 0 1024 1024" version="1.1" xmlns="http://www.w3.org/2000/svg" p-id="4571" xmlns:xlink="http://www.w3.org/1999/xlink" width="128" height="128"><defs><style type="text/css"></style></defs><path d="M878.028283 244.363636H145.842424c-54.044444 0-97.486869 43.830303-97.486868 97.874748v341.074747c0 53.915152 43.70101 97.874747 97.486868 97.874748h732.315152c54.044444 0 97.486869-43.830303 97.486868-97.874748V342.238384c-0.129293-53.915152-43.70101-97.874747-97.616161-97.874748z m48.743434 438.949495c0 27.022222-21.850505 49.00202-48.614141 49.002021H145.842424c-26.892929 0-48.614141-21.979798-48.614141-49.002021V342.238384c0-27.022222 21.850505-49.00202 48.614141-49.00202h732.315152c26.892929 0 48.614141 21.979798 48.614141 49.00202v341.074747z" p-id="4572" fill="#31c27c"></path><path d="M437.656566 376.888889h47.191919V642.585859h-47.191919V463.90303l-79.256566 104.468687-79.256566-104.468687V642.585859H232.080808V376.888889h47.191919l79.256566 106.795959 79.127273-106.795959zM658.230303 576.258586l84.29899-198.59394h52.622222l-118.044444 265.69697h-38.141414l-118.044445-265.69697h52.880808l84.428283 198.59394z" p-id="4573" fill="#31c27c"></path></svg>